# xmcd
#
# Track frame offsets:
#	150
#	14355
#	27233
#	41526
#	54834
#	67481
#	80634
#	94837
#	106763
#	117529
#	131507
#	144008
#	155621
#	169822
#	181241
#	193921
#	208110
#	222021
#	233487
#	243796
#	257127
#	268922
#	280669
#	291824
#	303481
#
# Disc length: 4212 seconds
#
# Revision: 0
# Processed by: cddbd v1.5.1PL0 Copyright (c) Steve Scherf et al.
# Submitted via: EasyCDDAExtractor 7.5.0.1
#
DISCID=6a107219
DTITLE=Various Artist - Midnight At The Barrelhouse (Rockin' California R&B 1
DTITLE=945-51) Disc E
DYEAR=2003
DGENRE=R&B
TTITLE0=Mel Walker - Because I Love My Baby So
TTITLE1=Mel Walker - Where's My Baby
TTITLE2=Mel Walker - Three Magic Words
TTITLE3=Little Esther - I'm A Bad, Bad Girl
TTITLE4=Little Esther - Cryin' And Singin' The Blues
TTITLE5=Little Esther - Ring-A-Ding-Doo
TTITLE6=Little Esther - Hold Me
TTITLE7=Little Esther - Better Beware
TTITLE8=Peter 'Guitar' Lewis - Raggedy Blues
TTITLE9=Peter 'Guitar' Lewis - Crying With The Rising Sun
TTITLE10=Little Esther - Aged And Mellow Blues
TTITLE11=Little Esther - Ramblin' Blues
TTITLE12=Little Esther - The Storm
TTITLE13=Preston Love - Strictly Cash
TTITLE14=Preston Love - Like A Ship At Sea
TTITLE15=Mel Walker - Call Operator 210
TTITLE16=Mel Walker - Baby Baby Blues
TTITLE17=Mel Walker - Gypsy Blues
TTITLE18=Mel Walker - The Candle's Burnin' low
TTITLE19=Little Esther - Hollerin' And Screamin'
TTITLE20=Little Esther - Saturday Night Daddy
TTITLE21=Little Esther - Mainliner
TTITLE22=Little Esther - You Took My Love Too Fast
TTITLE23=Peter 'Guitar' Lewis - Scratchin'
TTITLE24=Peter 'Guitar' Lewis - Ooh Midnight
EXTD=
EXTT0=
EXTT1=
EXTT2=
EXTT3=
EXTT4=
EXTT5=
EXTT6=
EXTT7=
EXTT8=
EXTT9=
EXTT10=
EXTT11=
EXTT12=
EXTT13=
EXTT14=
EXTT15=
EXTT16=
EXTT17=
EXTT18=
EXTT19=
EXTT20=
EXTT21=
EXTT22=
EXTT23=
EXTT24=
PLAYORDER=
